HIERARCHY
ROOT Hips
{
	OFFSET 0.000000 121.760803 0.000000
	CHANNELS 6 Xposition Yposition Zposition Xrotation Yrotation Zrotation 
	JOINT Spine
	{
		OFFSET 0.072000 7.257294 -0.789700
		CHANNELS 3 Xrotation Yrotation Zrotation
		JOINT Spine1
		{
			OFFSET 0.000000 12.508769 -0.658067
			CHANNELS 3 Xrotation Yrotation Zrotation
			JOINT Spine1_split
			{
				OFFSET 0.000000 12.508769 -0.658067
				CHANNELS 3 Xrotation Yrotation Zrotation
				JOINT Spine2
				{
					OFFSET 0.000000 12.508769 -0.658067
					CHANNELS 3 Xrotation Yrotation Zrotation
					JOINT Neck
					{
						OFFSET 0.000000 14.033295 7.520400
						CHANNELS 3 Xrotation Yrotation Zrotation
						JOINT Head
						{
							OFFSET 0.000000 8.198502 5.703100
							CHANNELS 3 Xrotation Yrotation Zrotation
							JOINT HeadTop_End
							{
								OFFSET 0.000000 17.760803 13.332701
								CHANNELS 3 Xrotation Yrotation Zrotation
								End Site
								{
									OFFSET 0.000000 0.000000 0.000000
								}
							}
						}
					}
					JOINT LeftShoulder
					{
						OFFSET 6.292450 5.785301 -0.669000
						CHANNELS 3 Xrotation Yrotation Zrotation
						JOINT LeftShoulder_split
						{
							OFFSET 6.292450 5.785301 -0.669000
							CHANNELS 3 Xrotation Yrotation Zrotation
							JOINT LeftArm
							{
								OFFSET 13.907140 -6.093903 1.965100
								CHANNELS 3 Xrotation Yrotation Zrotation
								JOINT LeftForeArm
								{
									OFFSET 34.140198 0.000000 0.000000
									CHANNELS 3 Xrotation Yrotation Zrotation
									JOINT LeftHand
									{
										OFFSET 40.960209 0.000000 0.000000
										CHANNELS 3 Xrotation Yrotation Zrotation
										JOINT LeftHandThumb1
										{
											OFFSET 10.006996 -7.170425 9.573125
											CHANNELS 3 Xrotation Yrotation Zrotation
											JOINT LeftHandThumb2
											{
												OFFSET 1.835007 -1.059448 1.059443
												CHANNELS 3 Xrotation Yrotation Zrotation
												JOINT LeftHandThumb3
												{
													OFFSET 2.112267 -1.219513 1.219518
													CHANNELS 3 Xrotation Yrotation Zrotation
													JOINT LeftHandThumb4
													{
														OFFSET 4.843811 -2.796570 2.796576
														CHANNELS 3 Xrotation Yrotation Zrotation
														End Site
														{
															OFFSET 0.000000 0.000000 0.000000
														}
													}
												}
											}
										}
										JOINT LeftHandIndex1
										{
											OFFSET 18.389847 -0.922348 4.596882
											CHANNELS 3 Xrotation Yrotation Zrotation
											JOINT LeftHandIndex2
											{
												OFFSET 4.711273 0.000000 0.000000
												CHANNELS 3 Xrotation Yrotation Zrotation
												JOINT LeftHandIndex3
												{
													OFFSET 2.886131 0.000000 0.000000
													CHANNELS 3 Xrotation Yrotation Zrotation
													JOINT LeftHandIndex4
													{
														OFFSET 6.145912 0.000000 0.000000
														CHANNELS 3 Xrotation Yrotation Zrotation
														End Site
														{
															OFFSET 0.000000 0.000000 0.000000
														}
													}
												}
											}
										}
										JOINT LeftHandMiddle1
										{
											OFFSET 18.013008 0.000000 0.000000
											CHANNELS 3 Xrotation Yrotation Zrotation
											JOINT LeftHandMiddle2
											{
												OFFSET 4.946693 0.000000 0.000000
												CHANNELS 3 Xrotation Yrotation Zrotation
												JOINT LeftHandMiddle3
												{
													OFFSET 3.342232 0.000000 0.000000
													CHANNELS 3 Xrotation Yrotation Zrotation
													JOINT LeftHandMiddle4
													{
														OFFSET 4.461754 0.000000 0.000000
														CHANNELS 3 Xrotation Yrotation Zrotation
														End Site
														{
															OFFSET 0.000000 0.000000 0.000000
														}
													}
												}
											}
										}
										JOINT LeftHandRing1
										{
											OFFSET 15.849892 -0.102921 -4.126150
											CHANNELS 3 Xrotation Yrotation Zrotation
											JOINT LeftHandRing2
											{
												OFFSET 3.527054 0.000000 0.000000
												CHANNELS 3 Xrotation Yrotation Zrotation
												JOINT LeftHandRing3
												{
													OFFSET 2.961098 0.000000 0.000000
													CHANNELS 3 Xrotation Yrotation Zrotation
													JOINT LeftHandRing4
													{
														OFFSET 4.927200 0.000000 0.000000
														CHANNELS 3 Xrotation Yrotation Zrotation
														End Site
														{
															OFFSET 0.000000 0.000000 0.000000
														}
													}
												}
											}
										}
										JOINT LeftHandPinky1
										{
											OFFSET 12.791824 -0.832031 -6.799156
											CHANNELS 3 Xrotation Yrotation Zrotation
											JOINT LeftHandPinky2
											{
												OFFSET 3.327133 0.000000 0.000000
												CHANNELS 3 Xrotation Yrotation Zrotation
												JOINT LeftHandPinky3
												{
													OFFSET 3.014900 0.000000 0.000000
													CHANNELS 3 Xrotation Yrotation Zrotation
													JOINT LeftHandPinky4
													{
														OFFSET 5.847786 0.000000 0.000000
														CHANNELS 3 Xrotation Yrotation Zrotation
														End Site
														{
															OFFSET 0.000000 0.000000 0.000000
														}
													}
												}
											}
										}
									}
								}
							}
						}
					}
					JOINT RightShoulder
					{
						OFFSET -6.292450 5.785301 -0.669000
						CHANNELS 3 Xrotation Yrotation Zrotation
						JOINT RightShoulder_split
						{
							OFFSET -6.292450 5.785301 -0.669000
							CHANNELS 3 Xrotation Yrotation Zrotation
							JOINT RightArm
							{
								OFFSET -13.907140 -6.093903 1.965100
								CHANNELS 3 Xrotation Yrotation Zrotation
								JOINT RightForeArm
								{
									OFFSET -34.140198 0.000000 0.000000
									CHANNELS 3 Xrotation Yrotation Zrotation
									JOINT RightHand
									{
										OFFSET -40.960209 0.000000 0.000000
										CHANNELS 3 Xrotation Yrotation Zrotation
										JOINT RightHandThumb1
										{
											OFFSET -10.007050 -7.170456 9.573117
											CHANNELS 3 Xrotation Yrotation Zrotation
											JOINT RightHandThumb2
											{
												OFFSET -1.835007 -1.059448 1.059443
												CHANNELS 3 Xrotation Yrotation Zrotation
												JOINT RightHandThumb3
												{
													OFFSET -2.112267 -1.219513 1.219518
													CHANNELS 3 Xrotation Yrotation Zrotation
													JOINT RightHandThumb4
													{
														OFFSET -4.843834 -2.796585 2.796590
														CHANNELS 3 Xrotation Yrotation Zrotation
														End Site
														{
															OFFSET 0.000000 0.000000 0.000000
														}
													}
												}
											}
										}
										JOINT RightHandIndex1
										{
											OFFSET -18.389870 -0.922424 4.596786
											CHANNELS 3 Xrotation Yrotation Zrotation
											JOINT RightHandIndex2
											{
												OFFSET -4.711273 0.000000 0.000000
												CHANNELS 3 Xrotation Yrotation Zrotation
												JOINT RightHandIndex3
												{
													OFFSET -2.886131 0.000000 0.000000
													CHANNELS 3 Xrotation Yrotation Zrotation
													JOINT RightHandIndex4
													{
														OFFSET -6.145920 0.000000 0.000000
														CHANNELS 3 Xrotation Yrotation Zrotation
														End Site
														{
															OFFSET 0.000000 0.000000 0.000000
														}
													}
												}
											}
										}
										JOINT RightHandMiddle1
										{
											OFFSET -18.013008 0.000000 0.000000
											CHANNELS 3 Xrotation Yrotation Zrotation
											JOINT RightHandMiddle2
											{
												OFFSET -4.946693 0.000000 0.000000
												CHANNELS 3 Xrotation Yrotation Zrotation
												JOINT RightHandMiddle3
												{
													OFFSET -3.342232 0.000000 0.000000
													CHANNELS 3 Xrotation Yrotation Zrotation
													JOINT RightHandMiddle4
													{
														OFFSET -4.461754 0.000000 0.000000
														CHANNELS 3 Xrotation Yrotation Zrotation
														End Site
														{
															OFFSET 0.000000 0.000000 0.000000
														}
													}
												}
											}
										}
										JOINT RightHandRing1
										{
											OFFSET -15.849876 -0.102936 -4.126237
											CHANNELS 3 Xrotation Yrotation Zrotation
											JOINT RightHandRing2
											{
												OFFSET -3.527054 0.000000 0.000000
												CHANNELS 3 Xrotation Yrotation Zrotation
												JOINT RightHandRing3
												{
													OFFSET -2.961098 0.000000 0.000000
													CHANNELS 3 Xrotation Yrotation Zrotation
													JOINT RightHandRing4
													{
														OFFSET -4.927200 0.000000 0.000000
														CHANNELS 3 Xrotation Yrotation Zrotation
														End Site
														{
															OFFSET 0.000000 0.000000 0.000000
														}
													}
												}
											}
										}
										JOINT RightHandPinky1
										{
											OFFSET -12.791786 -0.832077 -6.799222
											CHANNELS 3 Xrotation Yrotation Zrotation
											JOINT RightHandPinky2
											{
												OFFSET -3.327133 0.000000 0.000000
												CHANNELS 3 Xrotation Yrotation Zrotation
												JOINT RightHandPinky3
												{
													OFFSET -3.014900 0.000000 0.000000
													CHANNELS 3 Xrotation Yrotation Zrotation
													JOINT RightHandPinky4
													{
														OFFSET -5.847786 0.000000 0.000000
														CHANNELS 3 Xrotation Yrotation Zrotation
														End Site
														{
															OFFSET 0.000000 0.000000 0.000000
														}
													}
												}
											}
										}
									}
								}
							}
						}
					}
				}
			}
		}
	}
	JOINT LeftUpLeg
	{
		OFFSET 13.026900 -6.336304 -1.092800
		CHANNELS 3 Xrotation Yrotation Zrotation
		JOINT LeftLeg
		{
			OFFSET 0.524474 -46.096886 9.782700
			CHANNELS 3 Xrotation Yrotation Zrotation
			JOINT LeftFoot
			{
				OFFSET -0.524474 -53.427422 -12.948200
				CHANNELS 3 Xrotation Yrotation Zrotation
				JOINT LeftToeBase
				{
					OFFSET 0.192200 -14.009700 16.364100
					CHANNELS 3 Xrotation Yrotation Zrotation
					JOINT LeftToe_End
					{
						OFFSET -1.784700 -0.561700 9.474800
						CHANNELS 3 Xrotation Yrotation Zrotation
						End Site
						{
							OFFSET 0.000000 0.000000 0.000000
						}
					}
				}
			}
		}
	}
	JOINT RightUpLeg
	{
		OFFSET -12.883000 -6.336304 -1.092800
		CHANNELS 3 Xrotation Yrotation Zrotation
		JOINT RightLeg
		{
			OFFSET -0.524587 -46.096825 9.782800
			CHANNELS 3 Xrotation Yrotation Zrotation
			JOINT RightFoot
			{
				OFFSET 0.524587 -53.427383 -12.948300
				CHANNELS 3 Xrotation Yrotation Zrotation
				JOINT RightToeBase
				{
					OFFSET -0.192200 -14.009700 16.364100
					CHANNELS 3 Xrotation Yrotation Zrotation
					JOINT RightToe_End
					{
						OFFSET 1.784700 -0.561700 9.474800
						CHANNELS 3 Xrotation Yrotation Zrotation
						End Site
						{
							OFFSET 0.000000 0.000000 0.000000
						}
					}
				}
			}
		}
	}
}
MOTION
Frames: 6
Frame Time: 0.016667
-0.136250 118.184395 0.567096 2.828154 -5.509994 -1.344481 -0.410968 -1.027963 1.198097 -1.124193 -0.763622 0.960462 0.000000 0.000000 0.000000 -1.125714 -0.723788 0.985441 -4.895964 1.540609 -0.449521 -0.934612 6.880853 -0.774390 0.000000 0.000000 -0.000000 -1.469254 10.517229 -4.984830 0.000000 0.000000 0.000000 43.879666 -68.213687 -24.791756 -0.000006 -21.268097 -0.000008 -25.251732 7.009057 0.097481 -3.405753 19.076281 14.453259 15.249473 14.620643 -5.800677 4.892158 5.223026 0.075630 0.000001 -0.000003 -0.000001 0.380311 2.260822 -19.095168 0.158445 1.471499 -12.290085 0.039719 0.740006 -6.144022 0.000001 0.000000 -0.000003 0.379676 2.258988 -19.079158 0.158854 1.473396 -12.306085 0.039715 0.739997 -6.144028 -0.000001 -0.000002 -0.000002 0.380310 2.260818 -19.095172 0.158441 1.471509 -12.290083 0.039718 0.739996 -6.144030 0.000003 0.000001 -0.000001 1.695999 6.096982 -18.680666 0.153595 -2.584206 -12.789186 0.039711 0.740003 -6.144024 -0.000003 -0.000000 0.000000 3.669362 5.665987 1.464134 0.000000 0.000000 0.000000 -1.701517 36.578668 65.584952 0.000000 22.959758 0.000001 -19.091378 -11.054783 9.870837 1.944064 -20.994845 -11.060293 4.637186 -8.634128 -0.225395 -1.273757 0.137314 -2.094866 -0.000000 0.000000 0.000002 0.194545 -1.636474 13.558129 0.162599 -1.497875 12.390190 0.040770 -0.753337 6.194033 0.000001 0.000001 0.000003 0.194540 -1.636476 13.558137 0.162602 -1.497876 12.390176 0.040762 -0.753339 6.194042 0.000000 -0.000000 -0.000001 0.194546 -1.636476 13.558133 0.162597 -1.497874 12.390189 0.040765 -0.753339 6.194038 0.000002 0.000000 0.000001 0.194543 -1.636477 13.558129 0.162604 -1.497875 12.390178 0.040759 -0.753335 6.194051 -0.000003 0.000000 0.000002 -17.457321 16.724502 12.090856 16.992003 9.610576 4.577749 -1.728471 3.225700 -11.105685 -0.000002 -0.000012 0.000001 -0.000000 -0.000000 0.000000 -15.096946 -21.348064 -4.470510 17.312569 9.643697 -3.007248 -5.543328 1.304521 3.529790 -0.000001 -0.000005 -0.000000 -0.000000 -0.000002 -0.000000 
-0.109257 118.181618 0.557668 2.805641 -5.469248 -1.320208 -0.420588 -1.068052 1.192898 -1.133012 -0.794374 0.957289 0.000000 0.000000 0.000000 -1.134493 -0.754701 0.983290 -4.912533 1.560737 -0.428862 -0.893667 7.011523 -0.803163 -0.000000 0.000000 -0.000000 -1.470419 10.513381 -4.967266 0.000000 0.000000 0.000000 43.640189 -68.242831 -25.097598 -0.000019 -21.297095 -0.000004 -25.352218 7.076672 0.079862 -3.405753 19.076285 14.453257 15.249471 14.620643 -5.800672 4.892160 5.223031 0.075634 0.000000 0.000001 -0.000001 0.380318 2.260821 -19.095168 0.158437 1.471498 -12.290088 0.039716 0.740007 -6.144021 0.000003 0.000001 0.000000 0.379675 2.258991 -19.079160 0.158858 1.473397 -12.306084 0.039710 0.739997 -6.144028 -0.000003 0.000001 -0.000001 0.380310 2.260820 -19.095170 0.158441 1.471508 -12.290080 0.039718 0.739997 -6.144028 0.000000 0.000000 0.000002 1.696001 6.096985 -18.680668 0.153594 -2.584207 -12.789186 0.039710 0.740005 -6.144023 0.000001 -0.000001 -0.000001 3.665458 5.656877 1.475269 0.000000 0.000000 0.000000 -1.703456 36.697541 65.596713 -0.000009 22.913178 0.000005 -18.957492 -10.909262 10.116178 1.959305 -20.982042 -11.038629 4.637193 -8.634128 -0.225411 -1.273753 0.137308 -2.094857 0.000003 0.000001 0.000000 0.194553 -1.636469 13.558103 0.162599 -1.497879 12.390202 0.040763 -0.753333 6.194053 0.000001 0.000002 0.000004 0.194551 -1.636468 13.558107 0.162602 -1.497882 12.390206 0.040761 -0.753336 6.194048 -0.000002 -0.000003 -0.000005 0.194552 -1.636463 13.558112 0.162596 -1.497882 12.390196 0.040762 -0.753335 6.194048 -0.000001 0.000001 0.000002 0.194554 -1.636464 13.558101 0.162599 -1.497877 12.390218 0.040759 -0.753342 6.194030 -0.000001 -0.000000 -0.000003 -17.436887 16.722350 12.065338 17.002557 9.605031 4.534715 -1.735739 3.199527 -11.064678 -0.000002 -0.000012 0.000001 0.000000 0.000000 0.000000 -15.109319 -21.373455 -4.537892 17.335932 9.643577 -2.996945 -5.548976 1.308449 3.537825 -0.000000 -0.000003 0.000001 0.000000 -0.000002 -0.000000 
-0.080251 118.176338 0.548064 2.785846 -5.431467 -1.286538 -0.425637 -1.105729 1.183351 -1.138106 -0.823448 0.951492 0.000000 0.000000 0.000000 -1.139511 -0.784105 0.978433 -4.937642 1.583683 -0.410673 -0.868417 7.152527 -0.837619 -0.000000 0.000000 -0.000000 -1.471644 10.508769 -4.946811 0.000000 0.000000 0.000000 43.432087 -68.283081 -25.363708 0.000001 -21.330129 -0.000001 -25.465235 7.139515 0.050433 -3.405747 19.076286 14.453261 15.249473 14.620643 -5.800676 4.892157 5.223027 0.075629 -0.000001 0.000000 -0.000000 0.380318 2.260821 -19.095170 0.158445 1.471497 -12.290089 0.039716 0.740006 -6.144022 0.000005 -0.000002 -0.000001 0.379678 2.258992 -19.079162 0.158851 1.473396 -12.306085 0.039711 0.739996 -6.144028 -0.000001 0.000001 0.000000 0.380316 2.260820 -19.095175 0.158444 1.471507 -12.290084 0.039715 0.739996 -6.144029 -0.000001 0.000001 0.000002 1.696006 6.096985 -18.680670 0.153594 -2.584207 -12.789183 0.039711 0.740004 -6.144022 0.000002 0.000003 0.000001 3.663049 5.650922 1.476512 0.000000 0.000000 0.000000 -1.717225 36.859580 65.610346 -0.000006 22.842789 -0.000006 -18.751852 -10.780427 10.391282 2.004053 -20.944348 -10.974907 4.637191 -8.634148 -0.225449 -1.273753 0.137312 -2.094872 -0.000000 0.000001 0.000003 0.194551 -1.636475 13.558125 0.162605 -1.497879 12.390193 0.040765 -0.753335 6.194042 -0.000001 0.000001 0.000002 0.194556 -1.636481 13.558116 0.162603 -1.497876 12.390206 0.040759 -0.753340 6.194036 -0.000001 0.000001 0.000001 0.194553 -1.636478 13.558124 0.162605 -1.497873 12.390203 0.040763 -0.753341 6.194026 0.000002 0.000002 0.000002 0.194552 -1.636477 13.558128 0.162606 -1.497876 12.390197 0.040758 -0.753338 6.194046 -0.000000 0.000001 0.000002 -17.417694 16.723846 12.027534 17.015468 9.599413 4.495926 -1.743598 3.174961 -11.023969 -0.000002 -0.000012 0.000001 -0.000000 0.000000 0.000000 -15.137525 -21.400105 -4.620357 17.372047 9.643502 -2.986564 -5.560387 1.318804 3.546581 -0.000003 0.000002 0.000001 -0.000000 -0.000002 -0.000000 
-0.046409 118.167961 0.538392 2.774338 -5.403355 -1.236795 -0.424263 -1.139204 1.167189 -1.138049 -0.849448 0.942093 0.000000 0.000000 0.000000 -1.139338 -0.810644 0.969838 -4.977105 1.608950 -0.396729 -0.867554 7.298592 -0.878810 -0.000000 -0.000000 -0.000000 -1.472790 10.501847 -4.921265 0.000000 0.000000 0.000000 43.262821 -68.342258 -25.576234 -0.000006 -21.363963 -0.000025 -25.588655 7.196875 -0.002532 -3.405754 19.076281 14.453261 15.249478 14.620641 -5.800673 4.892161 5.223033 0.075628 -0.000002 0.000004 0.000002 0.380316 2.260822 -19.095170 0.158445 1.471500 -12.290088 0.039712 0.740004 -6.144020 -0.000001 -0.000001 -0.000001 0.379675 2.258989 -19.079158 0.158860 1.473397 -12.306083 0.039712 0.739998 -6.144028 0.000000 0.000001 -0.000001 0.380307 2.260819 -19.095170 0.158440 1.471508 -12.290082 0.039712 0.739995 -6.144031 -0.000000 0.000001 0.000000 1.696004 6.096984 -18.680666 0.153588 -2.584207 -12.789184 0.039711 0.740004 -6.144022 0.000001 -0.000001 0.000000 3.662695 5.649603 1.468054 0.000000 0.000000 0.000000 -1.746184 37.070678 65.621562 -0.000026 22.738557 0.000038 -18.460284 -10.670043 10.687661 2.076837 -20.882757 -10.871369 4.637199 -8.634128 -0.225390 -1.273761 0.137307 -2.094888 -0.000001 -0.000000 -0.000000 0.194543 -1.636465 13.558118 0.162599 -1.497868 12.390206 0.040756 -0.753344 6.194029 0.000000 -0.000002 -0.000004 0.194550 -1.636470 13.558107 0.162599 -1.497864 12.390224 0.040759 -0.753348 6.194018 -0.000000 0.000002 0.000003 0.194549 -1.636471 13.558110 0.162598 -1.497867 12.390212 0.040755 -0.753344 6.194024 0.000001 0.000001 0.000001 0.194550 -1.636468 13.558111 0.162602 -1.497869 12.390204 0.040755 -0.753340 6.194036 -0.000000 -0.000000 -0.000001 -17.402455 16.743244 11.968183 17.026813 9.594226 4.468246 -1.754350 3.148030 -10.985018 -0.000002 -0.000012 0.000001 -0.000000 0.000000 0.000000 -15.194680 -21.417532 -4.726166 17.426618 9.643320 -2.975203 -5.575771 1.334101 3.556729 0.000002 0.000010 -0.000000 -0.000000 0.000002 -0.000000 
-0.004272 118.153931 0.528694 2.776733 -5.393271 -1.164823 -0.414556 -1.166019 1.142608 -1.131373 -0.870494 0.928005 0.000000 0.000000 0.000000 -1.132506 -0.832501 0.956358 -5.037497 1.635507 -0.388879 -0.900395 7.441775 -0.927430 0.000000 -0.000000 0.000000 -1.473702 10.490595 -4.887725 0.000000 0.000000 0.000000 43.137706 -68.429152 -25.722600 0.000005 -21.393962 0.000023 -25.719310 7.248339 -0.091012 -3.405753 19.076285 14.453263 15.249470 14.620643 -5.800671 4.892156 5.223030 0.075628 -0.000001 0.000003 0.000002 0.380313 2.260822 -19.095170 0.158439 1.471498 -12.290088 0.039719 0.740006 -6.144022 0.000000 0.000001 -0.000001 0.379672 2.258991 -19.079160 0.158852 1.473396 -12.306083 0.039714 0.739996 -6.144027 0.000002 0.000000 -0.000002 0.380308 2.260820 -19.095175 0.158444 1.471508 -12.290084 0.039714 0.739996 -6.144028 -0.000001 0.000000 -0.000001 1.696002 6.096985 -18.680672 0.153597 -2.584206 -12.789185 0.039713 0.740005 -6.144022 0.000001 -0.000000 0.000000 3.664918 5.654361 1.451227 0.000000 0.000000 0.000000 -1.796747 37.337120 65.625059 -0.000011 22.587661 0.000035 -18.074438 -10.577707 10.993102 2.176131 -20.798179 -10.730182 4.637197 -8.634128 -0.225395 -1.273757 0.137308 -2.094884 -0.000000 -0.000000 0.000001 0.194545 -1.636468 13.558148 0.162592 -1.497881 12.390192 0.040764 -0.753338 6.194030 0.000002 0.000000 0.000000 0.194547 -1.636469 13.558148 0.162594 -1.497880 12.390195 0.040770 -0.753344 6.194019 -0.000001 -0.000000 0.000001 0.194546 -1.636470 13.558142 0.162593 -1.497879 12.390193 0.040767 -0.753347 6.194009 -0.000002 -0.000001 -0.000002 0.194549 -1.636468 13.558147 0.162598 -1.497882 12.390192 0.040766 -0.753338 6.194030 -0.000002 -0.000000 -0.000001 -17.399526 16.796004 11.880171 17.041390 9.589568 4.458980 -1.771650 3.114657 -10.948949 -0.000002 -0.000012 0.000001 -0.000000 0.000000 -0.000000 -15.295476 -21.409617 -4.863309 17.509357 9.643103 -2.961039 -5.598432 1.349273 3.568813 -0.000005 0.000011 -0.000001 -0.000000 0.000000 0.000000 
0.049492 118.132324 0.518805 2.795835 -5.408720 -1.065919 -0.394717 -1.183110 1.108061 -1.116680 -0.884227 0.908082 0.000000 0.000000 0.000000 -1.117626 -0.847350 0.936770 -5.125712 1.661748 -0.388801 -0.976282 7.571572 -0.983617 -0.000000 -0.000000 0.000000 -1.474196 10.472462 -4.842515 0.000000 0.000000 0.000000 43.059032 -68.553092 -25.792763 0.000003 -21.414742 -0.000007 -25.852797 7.293302 -0.225688 -3.405754 19.076280 14.453266 15.249466 14.620647 -5.800671 4.892156 5.223033 0.075631 -0.000001 0.000001 0.000001 0.380313 2.260821 -19.095168 0.158448 1.471499 -12.290087 0.039718 0.740006 -6.144022 -0.000003 0.000000 0.000001 0.379679 2.258990 -19.079158 0.158855 1.473396 -12.306085 0.039711 0.739996 -6.144028 -0.000002 0.000003 0.000003 0.380311 2.260816 -19.095172 0.158443 1.471508 -12.290084 0.039717 0.739996 -6.144030 0.000001 0.000000 0.000002 1.696002 6.096982 -18.680666 0.153594 -2.584205 -12.789183 0.039712 0.740005 -6.144023 0.000000 -0.000001 -0.000003 3.670161 5.666502 1.428728 0.000000 0.000000 0.000000 -1.879364 37.666096 65.614315 -0.000011 22.373977 0.000009 -17.594557 -10.500979 11.293269 2.300406 -20.691392 -10.553541 4.637191 -8.634127 -0.225405 -1.273758 0.137311 -2.094867 0.000001 0.000001 0.000001 0.194545 -1.636480 13.558107 0.162610 -1.497875 12.390196 0.040747 -0.753334 6.194054 0.000002 0.000001 0.000001 0.194541 -1.636477 13.558119 0.162603 -1.497876 12.390193 0.040758 -0.753347 6.194030 -0.000000 -0.000002 -0.000003 0.194544 -1.636482 13.558107 0.162611 -1.497877 12.390184 0.040753 -0.753336 6.194051 0.000001 0.000001 -0.000002 0.194539 -1.636478 13.558117 0.162601 -1.497877 12.390195 0.040764 -0.753346 6.194033 -0.000000 -0.000000 0.000000 -17.413540 16.894867 11.758217 17.063295 9.585803 4.472716 -1.798218 3.073208 -10.915645 -0.000002 -0.000012 0.000001 -0.000000 0.000000 0.000000 -15.449222 -21.359335 -5.037724 17.627139 9.642502 -2.941689 -5.629705 1.357658 3.583286 0.000002 0.000003 0.000000 0.000000 0.000001 -0.000000 
